<?xml version="1.0" encoding="utf-8"?>
<!-- Generator: Adobe Illustrator 24.0.1, SVG Export Plug-In . SVG Version: 6.00 Build 0)  -->
<svg version="1.1"
	 id="svg2" xmlns:cc="http://creativecommons.org/ns#" xmlns:dc="http://purl.org/dc/elements/1.1/" xmlns:inkscape="http://www.inkscape.org/namespaces/inkscape" xmlns:rdf="http://www.w3.org/1999/02/22-rdf-syntax-ns#" xmlns:sodipodi="http://sodipodi.sourceforge.net/DTD/sodipodi-0.dtd" xmlns:svg="http://www.w3.org/2000/svg"
	 xmlns="http://www.w3.org/2000/svg" xmlns:xlink="http://www.w3.org/1999/xlink" x="0px" y="0px" viewBox="0 0 300 134"
	 style="enable-background:new 0 0 300 134;" xml:space="preserve">
<style type="text/css">
	.st0{fill:#A50D73;}
	.st1{fill-rule:evenodd;clip-rule:evenodd;fill:#A50D73;}
	.st2{fill-rule:evenodd;clip-rule:evenodd;fill:#C2C4CA;fill-opacity:0.6275;}
	.st3{opacity:0.99;fill-rule:evenodd;clip-rule:evenodd;fill:#A50D73;enable-background:new    ;}
	.st4{fill:#C2C4CA;fill-opacity:0.6275;}
	.st5{fill:#404040;}
	.st6{fill-rule:evenodd;clip-rule:evenodd;fill:#404040;}
</style>
<path id="path16" inkscape:connector-curvature="0" class="st0" d="M41,78.7h16.4V75H45.1V55.3H41V78.7"/>
<path id="path18" inkscape:connector-curvature="0" class="st1" d="M62.4,65.1v13.6h17.5V75H66.5v-6.3h11.7v-3.7h-4.9h-6.7H62.4"/>
<path id="path20" inkscape:connector-curvature="0" class="st2" d="M79.7,55.3H62.4V59h17.3V55.3"/>
<path id="path22" inkscape:connector-curvature="0" class="st3" d="M97.6,55.1h-3.8L83.5,78.7h4.2c4-9.5,3.6-8.6,7.9-18.7
	c4.3,9.9,3.9,9.2,7.9,18.7h4.3L97.6,55.1"/>
<path id="path24" inkscape:connector-curvature="0" class="st0" d="M129,71.5l-12.5-16.2h-3.8v23.4h4V62l12.9,16.7h3.4V55.3h-4
	L129,71.5"/>
<path id="path26" inkscape:connector-curvature="0" class="st4" d="M148,70.4v-4h-9.9v4H148"/>
<path id="path28" inkscape:connector-curvature="0" class="st5" d="M174,75l-2.6-2.7c-1,0.9-2,1.7-3,2.2c-1,0.5-2.2,0.8-3.7,0.8
	c-1.1,0-2.1-0.2-3.1-0.7c-0.9-0.4-1.8-1-2.4-1.8c-0.7-0.8-1.2-1.6-1.6-2.7c-0.4-1-0.6-2.1-0.6-3.3c0-1.2,0.2-2.2,0.6-3.2
	c0.4-1,0.9-1.9,1.6-2.6c0.7-0.7,1.5-1.3,2.4-1.8c0.9-0.4,2-0.7,3.1-0.7c1.3,0,2.5,0.3,3.6,0.8c1,0.5,2,1.2,3,2.1l2.6-3
	c-0.6-0.5-1.1-1-1.8-1.5c-0.6-0.4-1.3-0.8-2-1.2c-0.7-0.3-1.5-0.6-2.4-0.8c-0.9-0.2-1.8-0.3-2.9-0.3c-1.8,0-3.4,0.3-4.9,1
	c-1.5,0.6-2.7,1.5-3.8,2.6c-1.1,1.1-1.9,2.4-2.5,3.9c-0.6,1.5-0.9,3-0.9,4.7c0,1.7,0.3,3.3,0.9,4.7c0.6,1.5,1.4,2.7,2.5,3.8
	c1.1,1.1,2.3,1.9,3.7,2.6c1.4,0.6,3,0.9,4.7,0.9c1.1,0,2.1-0.1,3-0.3c0.9-0.2,1.7-0.5,2.5-0.8c0.8-0.4,1.5-0.8,2.1-1.3
	C172.8,76.2,173.4,75.6,174,75"/>
<path id="path30" inkscape:connector-curvature="0" class="st5" d="M201.8,67c0-1.7-0.3-3.2-0.9-4.7c-0.6-1.5-1.4-2.8-2.5-3.8
	c-1.1-1.1-2.3-2-3.8-2.6c-1.5-0.6-3.1-1-4.9-1c-1.8,0-3.4,0.3-4.9,1c-1.5,0.6-2.8,1.5-3.9,2.6c-1.1,1.1-1.9,2.4-2.5,3.9
	c-0.6,1.5-0.9,3-0.9,4.7c0,1.7,0.3,3.2,0.9,4.7c0.6,1.5,1.4,2.8,2.5,3.8c1.1,1.1,2.3,2,3.8,2.6c1.5,0.6,3.1,1,4.9,1
	c1.8,0,3.4-0.3,4.9-1c1.5-0.6,2.8-1.5,3.9-2.6c1.1-1.1,1.9-2.4,2.5-3.9C201.5,70.2,201.8,68.6,201.8,67z M197.5,67
	c0,1.1-0.2,2.2-0.6,3.2c-0.4,1-0.9,1.9-1.6,2.6c-0.7,0.7-1.5,1.3-2.5,1.8c-1,0.4-2,0.7-3.2,0.7c-1.2,0-2.2-0.2-3.2-0.7
	c-1-0.4-1.8-1-2.5-1.8c-0.7-0.8-1.2-1.6-1.6-2.7c-0.4-1-0.6-2.1-0.6-3.2c0-1.1,0.2-2.2,0.6-3.2c0.4-1,0.9-1.9,1.6-2.6
	c0.7-0.7,1.5-1.3,2.5-1.8c1-0.4,2-0.7,3.2-0.7c1.2,0,2.2,0.2,3.2,0.7s1.8,1,2.5,1.8c0.7,0.8,1.2,1.6,1.6,2.7
	C197.3,64.8,197.5,65.9,197.5,67"/>
<path id="path32" inkscape:connector-curvature="0" class="st5" d="M228.7,67c0-1.7-0.3-3.2-0.9-4.6c-0.6-1.4-1.4-2.7-2.5-3.7
	c-1.1-1-2.4-1.9-3.9-2.5c-1.5-0.6-3.2-0.9-5-0.9h-8.7v23.4h8.7c1.8,0,3.5-0.3,5-0.9c1.5-0.6,2.8-1.4,3.9-2.5c1.1-1,1.9-2.3,2.5-3.7
	C228.4,70.2,228.7,68.6,228.7,67L228.7,67z M224.4,67c0,1.2-0.2,2.2-0.6,3.2c-0.4,1-0.9,1.8-1.6,2.5c-0.7,0.7-1.5,1.2-2.5,1.6
	c-1,0.4-2.1,0.6-3.3,0.6h-4.6V59h4.6c1.2,0,2.3,0.2,3.3,0.6c1,0.4,1.8,1,2.5,1.7c0.7,0.7,1.2,1.6,1.6,2.5
	C224.2,64.8,224.4,65.9,224.4,67"/>
<path id="path34" inkscape:connector-curvature="0" class="st6" d="M234.5,65.1v13.6h17.5V75h-13.4v-6.3h11.7v-3.7h-4.7h-7H234.5"/>
<path id="path36" inkscape:connector-curvature="0" class="st2" d="M251.7,55.3h-17.3V59h17.3V55.3"/>
<path id="path38" inkscape:connector-curvature="0" class="st5" d="M277.4,78.7l-6.3-8.9c0.8-0.2,1.6-0.5,2.2-1
	c0.7-0.4,1.3-0.9,1.7-1.5c0.5-0.6,0.9-1.3,1.1-2c0.3-0.8,0.4-1.6,0.4-2.6c0-1.1-0.2-2.2-0.6-3.1c-0.4-0.9-1-1.7-1.7-2.3
	c-0.7-0.6-1.7-1.1-2.7-1.5c-1.1-0.3-2.3-0.5-3.6-0.5h-10.4v23.4h4.1v-8.2h5.1l5.7,8.2H277.4z M272.5,63c0,1.2-0.4,2.2-1.3,2.9
	c-0.9,0.7-2,1.1-3.5,1.1h-6V59h6c1.5,0,2.7,0.3,3.6,1C272.1,60.7,272.5,61.7,272.5,63"/>
<path id="path40" inkscape:connector-curvature="0" class="st5" d="M286,61.4c0-0.8,0.3-1.4,1-2c0.7-0.5,1.6-0.8,2.8-0.8
	c1.1,0,2.1,0.2,3.2,0.6c1,0.4,2.1,1,3.2,1.8l2.2-3.1c-1.2-1-2.5-1.7-3.8-2.2c-1.4-0.5-2.9-0.8-4.6-0.8c-1.2,0-2.2,0.2-3.2,0.5
	c-1,0.3-1.8,0.8-2.5,1.4c-0.7,0.6-1.2,1.3-1.6,2.2c-0.4,0.8-0.6,1.8-0.6,2.8c0,1.1,0.2,2,0.5,2.8c0.3,0.8,0.8,1.4,1.5,1.9
	c0.7,0.5,1.5,1,2.4,1.3c1,0.4,2.1,0.7,3.3,1c1.1,0.3,2,0.5,2.6,0.8c0.7,0.2,1.2,0.5,1.6,0.8c0.4,0.3,0.7,0.6,0.8,0.9
	c0.1,0.3,0.2,0.7,0.2,1.1c0,0.9-0.4,1.6-1.1,2.2c-0.7,0.5-1.7,0.8-3,0.8c-1.5,0-2.8-0.3-3.9-0.8c-1.2-0.5-2.3-1.3-3.4-2.3l-2.5,2.9
	c1.4,1.3,2.9,2.2,4.6,2.8c1.6,0.6,3.4,0.9,5.2,0.9c1.2,0,2.3-0.2,3.4-0.5c1-0.3,1.9-0.8,2.6-1.4c0.7-0.6,1.3-1.3,1.7-2.2
	c0.4-0.9,0.6-1.9,0.6-3c0-1-0.2-1.8-0.5-2.6c-0.3-0.7-0.8-1.4-1.4-1.9c-0.6-0.5-1.4-1-2.3-1.4c-0.9-0.4-2-0.7-3.2-1
	c-1.1-0.3-2-0.5-2.7-0.8c-0.7-0.2-1.3-0.5-1.7-0.8c-0.4-0.3-0.7-0.6-0.8-0.9C286.1,62.3,286,61.9,286,61.4"/>
<path id="path42_1_" inkscape:connector-curvature="0" class="st2" d="M129,5v47h4V1H1v132h132V82h-4v47H5V5H129z"/>
<path id="path44" inkscape:connector-curvature="0" class="st4" d="M144.6,89l-0.9-0.9c-0.2,0.2-0.5,0.4-0.7,0.6
	c-0.3,0.1-0.6,0.2-0.9,0.2c-0.3,0-0.5-0.1-0.8-0.2c-0.2-0.1-0.4-0.3-0.6-0.4c-0.2-0.2-0.3-0.4-0.4-0.6c-0.1-0.2-0.1-0.5-0.1-0.8
	c0-0.3,0-0.5,0.1-0.8c0.1-0.2,0.2-0.5,0.4-0.6c0.2-0.2,0.4-0.3,0.6-0.4c0.2-0.1,0.5-0.2,0.7-0.2c0.4,0,0.7,0.1,0.9,0.2
	c0.3,0.1,0.5,0.3,0.7,0.6l0.9-1c-0.3-0.3-0.6-0.6-1-0.8c-0.4-0.2-0.9-0.3-1.5-0.3c-0.5,0-0.9,0.1-1.3,0.3c-0.4,0.2-0.7,0.4-1,0.7
	c-0.3,0.3-0.5,0.7-0.7,1.1c-0.2,0.4-0.2,0.8-0.2,1.3c0,0.5,0.1,0.9,0.2,1.3c0.2,0.4,0.4,0.7,0.7,1c0.3,0.3,0.6,0.5,1,0.7
	c0.4,0.2,0.8,0.3,1.3,0.3c0.6,0,1.1-0.1,1.5-0.3C143.9,89.6,144.3,89.4,144.6,89L144.6,89z M147.3,87.6c0-0.4,0.1-0.8,0.2-1.1
	c0.1-0.3,0.3-0.6,0.4-0.8c0.2-0.2,0.4-0.4,0.7-0.5c0.3-0.1,0.6-0.2,0.9-0.2h0.1v-1.5c-0.6,0-1,0.1-1.4,0.4c-0.4,0.3-0.6,0.7-0.8,1.2
	v-1.4h-1.4v6.3h1.4V87.6z M151.7,87.4h4.6c0-0.1,0-0.1,0-0.2c0-0.1,0-0.1,0-0.2c0-0.5-0.1-0.9-0.2-1.3c-0.1-0.4-0.3-0.8-0.6-1.1
	c-0.3-0.3-0.6-0.6-0.9-0.7c-0.4-0.2-0.8-0.3-1.3-0.3c-0.5,0-0.9,0.1-1.2,0.3c-0.4,0.2-0.7,0.4-1,0.7c-0.3,0.3-0.5,0.6-0.6,1
	c-0.2,0.4-0.2,0.8-0.2,1.3c0,0.5,0.1,0.9,0.3,1.3c0.2,0.4,0.4,0.7,0.7,1c0.3,0.3,0.6,0.5,1,0.7c0.4,0.2,0.8,0.2,1.3,0.2
	c0.6,0,1.1-0.1,1.5-0.3c0.4-0.2,0.8-0.5,1.1-0.9l-0.8-0.8c-0.3,0.2-0.5,0.4-0.8,0.6c-0.3,0.1-0.6,0.2-0.9,0.2
	c-0.5,0-0.9-0.1-1.2-0.4C152,88.3,151.8,87.9,151.7,87.4L151.7,87.4z M151.7,86.4c0.1-0.5,0.2-0.9,0.5-1.2c0.3-0.3,0.7-0.5,1.1-0.5
	c0.2,0,0.5,0,0.6,0.1c0.2,0.1,0.3,0.2,0.5,0.4c0.1,0.1,0.2,0.3,0.3,0.5c0.1,0.2,0.1,0.4,0.2,0.7H151.7z M163.1,90.1v-3.8
	c0-0.8-0.2-1.5-0.7-2c-0.5-0.5-1.2-0.7-2.1-0.7c-0.5,0-1,0-1.3,0.1c-0.4,0.1-0.7,0.2-1.1,0.4l0.4,1.2c0.3-0.1,0.6-0.2,0.8-0.3
	c0.3-0.1,0.6-0.1,1-0.1c0.5,0,0.9,0.1,1.2,0.3c0.3,0.2,0.4,0.6,0.4,1v0.2c-0.2-0.1-0.5-0.1-0.8-0.2c-0.3,0-0.6-0.1-1-0.1
	c-0.4,0-0.7,0-1,0.1c-0.3,0.1-0.6,0.2-0.8,0.4c-0.2,0.2-0.4,0.4-0.5,0.6c-0.1,0.3-0.2,0.6-0.2,0.9v0c0,0.3,0.1,0.6,0.2,0.8
	c0.1,0.2,0.3,0.4,0.5,0.6c0.2,0.2,0.4,0.3,0.7,0.4c0.3,0.1,0.6,0.1,0.9,0.1c0.5,0,0.9-0.1,1.2-0.3c0.3-0.2,0.6-0.4,0.8-0.6v0.8
	L163.1,90.1z M161.7,87.8c0,0.2,0,0.4-0.1,0.5c-0.1,0.2-0.2,0.3-0.4,0.4c-0.2,0.1-0.3,0.2-0.5,0.3c-0.2,0.1-0.4,0.1-0.7,0.1
	c-0.3,0-0.6-0.1-0.9-0.2c-0.2-0.2-0.4-0.4-0.4-0.7v0c0-0.3,0.1-0.6,0.4-0.8c0.3-0.2,0.6-0.3,1.1-0.3c0.3,0,0.5,0,0.8,0.1
	c0.3,0,0.5,0.1,0.7,0.2L161.7,87.8z M166.5,85h1.7v-1.2h-1.7V82h-1.4v1.7h-0.8V85h0.8v3.3c0,0.4,0,0.6,0.1,0.9
	c0.1,0.2,0.2,0.4,0.4,0.6c0.2,0.1,0.4,0.2,0.6,0.3c0.2,0.1,0.5,0.1,0.7,0.1c0.3,0,0.5,0,0.7-0.1c0.2-0.1,0.4-0.1,0.6-0.2v-1.2
	c-0.3,0.1-0.6,0.2-0.9,0.2c-0.2,0-0.4-0.1-0.6-0.2c-0.1-0.1-0.2-0.3-0.2-0.6V85z M170.6,87.4h4.6c0-0.1,0-0.1,0-0.2
	c0-0.1,0-0.1,0-0.2c0-0.5-0.1-0.9-0.2-1.3c-0.1-0.4-0.3-0.8-0.6-1.1c-0.3-0.3-0.6-0.6-0.9-0.7c-0.4-0.2-0.8-0.3-1.3-0.3
	c-0.5,0-0.9,0.1-1.2,0.3c-0.4,0.2-0.7,0.4-1,0.7c-0.3,0.3-0.5,0.6-0.6,1c-0.2,0.4-0.2,0.8-0.2,1.3c0,0.5,0.1,0.9,0.3,1.3
	c0.2,0.4,0.4,0.7,0.7,1c0.3,0.3,0.6,0.5,1,0.7c0.4,0.2,0.8,0.2,1.3,0.2c0.6,0,1.1-0.1,1.5-0.3c0.4-0.2,0.8-0.5,1.1-0.9l-0.8-0.8
	c-0.3,0.2-0.5,0.4-0.8,0.6c-0.3,0.1-0.6,0.2-0.9,0.2c-0.5,0-0.9-0.1-1.2-0.4C170.9,88.3,170.7,87.9,170.6,87.4L170.6,87.4z
	 M170.6,86.4c0.1-0.5,0.2-0.9,0.5-1.2c0.3-0.3,0.7-0.5,1.1-0.5c0.2,0,0.5,0,0.6,0.1c0.2,0.1,0.3,0.2,0.5,0.4
	c0.1,0.1,0.2,0.3,0.3,0.5c0.1,0.2,0.1,0.4,0.2,0.7H170.6z M182.9,88.4l-1.7-4.7h-1.6l2.6,6.4h1.3l2.6-6.4h-1.5L182.9,88.4z
	 M192.4,90.1v-3.8c0-0.8-0.2-1.5-0.7-2c-0.5-0.5-1.2-0.7-2.1-0.7c-0.5,0-1,0-1.3,0.1c-0.4,0.1-0.7,0.2-1.1,0.4l0.4,1.2
	c0.3-0.1,0.6-0.2,0.8-0.3c0.3-0.1,0.6-0.1,1-0.1c0.5,0,0.9,0.1,1.2,0.3c0.3,0.2,0.4,0.6,0.4,1v0.2c-0.2-0.1-0.5-0.1-0.8-0.2
	s-0.6-0.1-1-0.1c-0.4,0-0.7,0-1,0.1c-0.3,0.1-0.6,0.2-0.8,0.4c-0.2,0.2-0.4,0.4-0.5,0.6c-0.1,0.3-0.2,0.6-0.2,0.9v0
	c0,0.3,0.1,0.6,0.2,0.8c0.1,0.2,0.3,0.4,0.5,0.6c0.2,0.2,0.4,0.3,0.7,0.4c0.3,0.1,0.6,0.1,0.9,0.1c0.5,0,0.9-0.1,1.2-0.3
	c0.3-0.2,0.6-0.4,0.8-0.6v0.8L192.4,90.1z M191,87.8c0,0.2,0,0.4-0.1,0.5c-0.1,0.2-0.2,0.3-0.4,0.4c-0.2,0.1-0.3,0.2-0.5,0.3
	c-0.2,0.1-0.4,0.1-0.7,0.1c-0.3,0-0.6-0.1-0.9-0.2c-0.2-0.2-0.4-0.4-0.4-0.7v0c0-0.3,0.1-0.6,0.4-0.8c0.3-0.2,0.6-0.3,1.1-0.3
	c0.3,0,0.5,0,0.8,0.1c0.3,0,0.5,0.1,0.7,0.2L191,87.8z M195.6,90.1v-8.8h-1.4v8.8H195.6z M201.7,87.3c0,0.5-0.1,0.9-0.4,1.2
	c-0.3,0.3-0.6,0.4-1,0.4c-0.4,0-0.8-0.1-1-0.4c-0.2-0.3-0.4-0.6-0.4-1.1v-3.6h-1.4v4c0,0.7,0.2,1.3,0.6,1.8c0.4,0.4,0.9,0.7,1.7,0.7
	c0.5,0,0.9-0.1,1.2-0.3c0.3-0.2,0.6-0.5,0.8-0.8v1h1.4v-6.3h-1.4L201.7,87.3z M206,87.4h4.6c0-0.1,0-0.1,0-0.2c0-0.1,0-0.1,0-0.2
	c0-0.5-0.1-0.9-0.2-1.3c-0.1-0.4-0.3-0.8-0.6-1.1c-0.3-0.3-0.6-0.6-0.9-0.7c-0.4-0.2-0.8-0.3-1.3-0.3c-0.5,0-0.9,0.1-1.2,0.3
	c-0.4,0.2-0.7,0.4-1,0.7c-0.3,0.3-0.5,0.6-0.6,1c-0.2,0.4-0.2,0.8-0.2,1.3c0,0.5,0.1,0.9,0.3,1.3c0.2,0.4,0.4,0.7,0.7,1
	c0.3,0.3,0.6,0.5,1,0.7c0.4,0.2,0.8,0.2,1.3,0.2c0.6,0,1.1-0.1,1.5-0.3c0.4-0.2,0.8-0.5,1.1-0.9l-0.8-0.8c-0.3,0.2-0.5,0.4-0.8,0.6
	c-0.3,0.1-0.6,0.2-0.9,0.2c-0.5,0-0.9-0.1-1.2-0.4C206.3,88.3,206.1,87.9,206,87.4L206,87.4z M206,86.4c0.1-0.5,0.2-0.9,0.5-1.2
	c0.3-0.3,0.7-0.5,1.1-0.5c0.2,0,0.5,0,0.6,0.1c0.2,0.1,0.3,0.2,0.5,0.4c0.1,0.1,0.2,0.3,0.3,0.5c0.1,0.2,0.1,0.4,0.2,0.7H206z
	 M220.6,83.7h-1.2l-1.4,4.4l-1.3-4.3h-1.5l2,6.4h1.3l1.4-4.3l1.4,4.3h1.3l2.1-6.4h-1.4l-1.3,4.3L220.6,83.7z M227.6,82.7v-1.4H226
	v1.4H227.6z M227.5,90.1v-6.3h-1.4v6.3H227.5z M231.2,85h1.7v-1.2h-1.7V82h-1.4v1.7h-0.8V85h0.8v3.3c0,0.4,0,0.6,0.1,0.9
	c0.1,0.2,0.2,0.4,0.4,0.6c0.2,0.1,0.4,0.2,0.6,0.3c0.2,0.1,0.5,0.1,0.7,0.1c0.3,0,0.5,0,0.7-0.1c0.2-0.1,0.4-0.1,0.6-0.2v-1.2
	c-0.3,0.1-0.6,0.2-0.9,0.2c-0.2,0-0.4-0.1-0.6-0.2c-0.1-0.1-0.2-0.3-0.2-0.6V85z M235.8,86.5c0-0.5,0.1-0.9,0.4-1.2
	c0.3-0.3,0.6-0.4,1-0.4c0.4,0,0.8,0.1,1,0.4c0.2,0.3,0.4,0.6,0.4,1.1v3.6h1.4v-4c0-0.7-0.2-1.3-0.6-1.8c-0.4-0.4-0.9-0.7-1.7-0.7
	c-0.2,0-0.5,0-0.7,0.1c-0.2,0.1-0.4,0.1-0.5,0.2c-0.2,0.1-0.3,0.2-0.4,0.4c-0.1,0.1-0.2,0.3-0.3,0.4v-3.4h-1.4v8.8h1.4V86.5z
	 M248.1,86.9c0-0.5-0.1-0.9-0.3-1.3c-0.2-0.4-0.4-0.7-0.7-1c-0.3-0.3-0.7-0.5-1.1-0.7c-0.4-0.2-0.9-0.3-1.3-0.3
	c-0.5,0-0.9,0.1-1.3,0.3c-0.4,0.2-0.8,0.4-1.1,0.7c-0.3,0.3-0.5,0.7-0.7,1.1c-0.2,0.4-0.3,0.8-0.3,1.3c0,0.5,0.1,0.9,0.3,1.3
	c0.2,0.4,0.4,0.7,0.7,1c0.3,0.3,0.7,0.5,1.1,0.7c0.4,0.2,0.9,0.3,1.3,0.3c0.5,0,0.9-0.1,1.3-0.3c0.4-0.2,0.8-0.4,1.1-0.7
	c0.3-0.3,0.5-0.6,0.7-1C248,87.8,248.1,87.3,248.1,86.9L248.1,86.9z M246.7,86.9c0,0.3,0,0.5-0.1,0.8c-0.1,0.2-0.2,0.5-0.4,0.6
	c-0.2,0.2-0.4,0.3-0.6,0.4c-0.2,0.1-0.5,0.2-0.8,0.2c-0.3,0-0.5-0.1-0.8-0.2c-0.2-0.1-0.4-0.3-0.6-0.4c-0.2-0.2-0.3-0.4-0.4-0.7
	s-0.1-0.5-0.1-0.8c0-0.3,0-0.5,0.1-0.8c0.1-0.2,0.2-0.5,0.4-0.6s0.4-0.3,0.6-0.4c0.2-0.1,0.5-0.2,0.8-0.2c0.3,0,0.5,0.1,0.8,0.2
	c0.2,0.1,0.4,0.3,0.6,0.4s0.3,0.4,0.4,0.7C246.6,86.4,246.7,86.6,246.7,86.9L246.7,86.9z M253.7,87.3c0,0.5-0.1,0.9-0.4,1.2
	c-0.3,0.3-0.6,0.4-1,0.4c-0.4,0-0.8-0.1-1-0.4c-0.2-0.3-0.4-0.6-0.4-1.1v-3.6h-1.4v4c0,0.7,0.2,1.3,0.6,1.8c0.4,0.4,0.9,0.7,1.7,0.7
	c0.5,0,0.9-0.1,1.2-0.3c0.3-0.2,0.6-0.5,0.8-0.8v1h1.4v-6.3h-1.4L253.7,87.3z M258.7,85h1.7v-1.2h-1.7V82h-1.4v1.7h-0.8V85h0.8v3.3
	c0,0.4,0,0.6,0.1,0.9c0.1,0.2,0.2,0.4,0.4,0.6c0.2,0.1,0.4,0.2,0.6,0.3c0.2,0.1,0.5,0.1,0.7,0.1c0.3,0,0.5,0,0.7-0.1
	c0.2-0.1,0.4-0.1,0.6-0.2v-1.2c-0.3,0.1-0.6,0.2-0.9,0.2c-0.2,0-0.4-0.1-0.6-0.2c-0.1-0.1-0.2-0.3-0.2-0.6V85z M270.3,83.7h-1.2
	l-1.4,4.4l-1.3-4.3h-1.5l2,6.4h1.3l1.4-4.3l1.4,4.3h1.3l2.1-6.4H273l-1.3,4.3L270.3,83.7z M280.8,90.1v-3.8c0-0.8-0.2-1.5-0.7-2
	c-0.5-0.5-1.2-0.7-2.1-0.7c-0.5,0-1,0-1.3,0.1c-0.4,0.1-0.7,0.2-1.1,0.4l0.4,1.2c0.3-0.1,0.6-0.2,0.8-0.3c0.3-0.1,0.6-0.1,1-0.1
	c0.5,0,0.9,0.1,1.2,0.3c0.3,0.2,0.4,0.6,0.4,1v0.2c-0.2-0.1-0.5-0.1-0.8-0.2c-0.3,0-0.6-0.1-1-0.1c-0.4,0-0.7,0-1,0.1
	c-0.3,0.1-0.6,0.2-0.8,0.4c-0.2,0.2-0.4,0.4-0.5,0.6c-0.1,0.3-0.2,0.6-0.2,0.9v0c0,0.3,0.1,0.6,0.2,0.8c0.1,0.2,0.3,0.4,0.5,0.6
	s0.4,0.3,0.7,0.4c0.3,0.1,0.6,0.1,0.9,0.1c0.5,0,0.9-0.1,1.2-0.3c0.3-0.2,0.6-0.4,0.8-0.6v0.8L280.8,90.1z M279.4,87.8
	c0,0.2,0,0.4-0.1,0.5c-0.1,0.2-0.2,0.3-0.4,0.4c-0.2,0.1-0.3,0.2-0.5,0.3c-0.2,0.1-0.4,0.1-0.7,0.1c-0.3,0-0.6-0.1-0.9-0.2
	c-0.2-0.2-0.4-0.4-0.4-0.7v0c0-0.3,0.1-0.6,0.4-0.8c0.3-0.2,0.6-0.3,1.1-0.3c0.3,0,0.5,0,0.8,0.1c0.3,0,0.5,0.1,0.7,0.2V87.8z
	 M287,88.2L287,88.2c0-0.3-0.1-0.6-0.2-0.8c-0.1-0.2-0.3-0.4-0.5-0.5c-0.2-0.1-0.4-0.3-0.6-0.4c-0.2-0.1-0.5-0.2-0.7-0.3
	c-0.2-0.1-0.4-0.1-0.5-0.2c-0.2-0.1-0.3-0.1-0.5-0.2c-0.1-0.1-0.2-0.1-0.3-0.2c-0.1-0.1-0.1-0.2-0.1-0.3v0c0-0.2,0.1-0.3,0.2-0.5
	c0.2-0.1,0.4-0.2,0.7-0.2c0.3,0,0.5,0.1,0.9,0.2c0.3,0.1,0.6,0.3,0.9,0.4l0.6-1c-0.3-0.2-0.7-0.4-1.1-0.5c-0.4-0.1-0.8-0.2-1.2-0.2
	c-0.3,0-0.6,0-0.9,0.1c-0.3,0.1-0.5,0.2-0.7,0.4c-0.2,0.2-0.4,0.4-0.5,0.6c-0.1,0.2-0.2,0.5-0.2,0.8v0c0,0.3,0.1,0.6,0.2,0.8
	c0.1,0.2,0.3,0.4,0.5,0.5c0.2,0.1,0.4,0.3,0.6,0.3c0.2,0.1,0.5,0.2,0.7,0.2c0.2,0.1,0.4,0.1,0.5,0.2c0.2,0.1,0.3,0.1,0.5,0.2
	c0.1,0.1,0.2,0.1,0.3,0.2c0.1,0.1,0.1,0.2,0.1,0.3v0c0,0.2-0.1,0.4-0.3,0.5c-0.2,0.1-0.4,0.2-0.7,0.2c-0.3,0-0.7-0.1-1-0.2
	c-0.4-0.1-0.7-0.3-1-0.6l-0.6,1c0.4,0.3,0.8,0.5,1.3,0.7c0.5,0.2,0.9,0.2,1.4,0.2c0.3,0,0.6,0,0.9-0.1c0.3-0.1,0.5-0.2,0.7-0.4
	c0.2-0.2,0.4-0.4,0.5-0.6C287,88.8,287,88.5,287,88.2z M290.1,85h1.7v-1.2h-1.7V82h-1.4v1.7h-0.8V85h0.8v3.3c0,0.4,0,0.6,0.1,0.9
	c0.1,0.2,0.2,0.4,0.4,0.6c0.2,0.1,0.4,0.2,0.6,0.3c0.2,0.1,0.5,0.1,0.7,0.1c0.3,0,0.5,0,0.7-0.1c0.2-0.1,0.4-0.1,0.6-0.2v-1.2
	c-0.3,0.1-0.6,0.2-0.9,0.2c-0.2,0-0.4-0.1-0.6-0.2c-0.1-0.1-0.2-0.3-0.2-0.6V85z M294.2,87.4h4.6c0-0.1,0-0.1,0-0.2
	c0-0.1,0-0.1,0-0.2c0-0.5-0.1-0.9-0.2-1.3c-0.1-0.4-0.3-0.8-0.6-1.1c-0.3-0.3-0.6-0.6-0.9-0.7c-0.4-0.2-0.8-0.3-1.3-0.3
	c-0.5,0-0.9,0.1-1.2,0.3c-0.4,0.2-0.7,0.4-1,0.7c-0.3,0.3-0.5,0.6-0.6,1c-0.2,0.4-0.2,0.8-0.2,1.3c0,0.5,0.1,0.9,0.3,1.3
	c0.2,0.4,0.4,0.7,0.7,1c0.3,0.3,0.6,0.5,1,0.7c0.4,0.2,0.8,0.2,1.3,0.2c0.6,0,1.1-0.1,1.5-0.3c0.4-0.2,0.8-0.5,1.1-0.9l-0.8-0.8
	c-0.3,0.2-0.5,0.4-0.8,0.6c-0.3,0.1-0.6,0.2-0.9,0.2c-0.5,0-0.9-0.1-1.2-0.4C294.5,88.3,294.3,87.9,294.2,87.4L294.2,87.4z
	 M294.2,86.4c0.1-0.5,0.2-0.9,0.5-1.2c0.3-0.3,0.7-0.5,1.1-0.5c0.2,0,0.5,0,0.6,0.1c0.2,0.1,0.3,0.2,0.5,0.4
	c0.1,0.1,0.2,0.3,0.3,0.5c0.1,0.2,0.1,0.4,0.2,0.7H294.2"/>
</svg>
