<?xml version="1.0" encoding="utf-8"?>
<!-- Generator: Adobe Illustrator 24.2.3, SVG Export Plug-In . SVG Version: 6.00 Build 0)  -->
<svg version="1.1" id="Layer_1" xmlns="http://www.w3.org/2000/svg" xmlns:xlink="http://www.w3.org/1999/xlink" x="0px" y="0px"
	 viewBox="0 0 240 108" style="enable-background:new 0 0 240 108;" xml:space="preserve">
<style type="text/css">
	.st0{fill:#A50D73;}
	.st1{fill-rule:evenodd;clip-rule:evenodd;fill:#A50D73;}
	.st2{fill-rule:evenodd;clip-rule:evenodd;fill:#C2C2C2;}
	.st3{opacity:0.99;fill-rule:evenodd;clip-rule:evenodd;fill:#A50D73;enable-background:new    ;}
	.st4{fill:#C2C4CA;}
	.st5{fill:#342E36;}
	.st6{fill-rule:evenodd;clip-rule:evenodd;fill:#342E36;}
	.st7{fill-rule:evenodd;clip-rule:evenodd;fill:#C2C4CA;}
	.st8{fill:#C4C4C4;}
</style>
<path id="path16" class="st0" d="M33,63h13v-3H36V44h-3V63"/>
<path id="path18_1_" class="st1" d="M50,63h14v-3H53v-5h10v-3l-13,0V63z"/>
<path id="path20" class="st2" d="M64,44H50v3h14V44"/>
<path id="path22" class="st3" d="M78.3,44h-3L67,63h3.4c3.2-7.6,2.9-6.9,6.3-15.1c3.4,8,3.1,7.4,6.3,15.1h3.4L78.3,44"/>
<path id="path24_1_" class="st0" d="M104,57.2L94,44h-3v19h3V49.4L104,63h3V44h-3V57.2z"/>
<path id="path26" class="st4" d="M118,56v-3h-8v3H118"/>
<path id="path28" class="st5" d="M139.1,60.4l-2.1-2.2c-0.8,0.7-1.6,1.4-2.4,1.8c-0.8,0.4-1.8,0.6-3,0.6c-0.9,0-1.7-0.2-2.5-0.6
	c-0.7-0.3-1.4-0.8-1.9-1.4c-0.6-0.6-1-1.3-1.3-2.2c-0.3-0.8-0.5-1.7-0.5-2.7c0-1,0.2-1.8,0.5-2.6c0.3-0.8,0.7-1.5,1.3-2.1
	c0.6-0.6,1.2-1,1.9-1.4c0.7-0.3,1.6-0.6,2.5-0.6c1,0,2,0.2,2.9,0.6c0.8,0.4,1.6,1,2.4,1.7l2.1-2.4c-0.5-0.4-0.9-0.8-1.4-1.2
	c-0.5-0.3-1-0.6-1.6-1c-0.6-0.2-1.2-0.5-1.9-0.6s-1.4-0.2-2.3-0.2c-1.4,0-2.7,0.2-3.9,0.8c-1.2,0.5-2.2,1.2-3,2.1
	c-0.9,0.9-1.5,1.9-2,3.1c-0.5,1.2-0.7,2.4-0.7,3.8s0.2,2.7,0.7,3.8c0.5,1.2,1.1,2.2,2,3.1c0.9,0.9,1.8,1.5,3,2.1
	c1.1,0.5,2.4,0.7,3.8,0.7c0.9,0,1.7-0.1,2.4-0.2c0.7-0.2,1.4-0.4,2-0.6c0.6-0.3,1.2-0.6,1.7-1C138.1,61.3,138.6,60.9,139.1,60.4"/>
<path id="path30" class="st5" d="M161.3,53.7c0-1.4-0.2-2.6-0.7-3.8c-0.5-1.2-1.1-2.2-2-3.1c-0.9-0.9-1.8-1.6-3-2.1
	c-1.2-0.5-2.5-0.8-3.9-0.8s-2.7,0.2-3.9,0.8c-1.2,0.5-2.2,1.2-3.1,2.1s-1.5,1.9-2,3.1c-0.5,1.2-0.7,2.4-0.7,3.8
	c0,1.4,0.2,2.6,0.7,3.8c0.5,1.2,1.1,2.2,2,3.1c0.9,0.9,1.8,1.6,3,2.1c1.2,0.5,2.5,0.8,3.9,0.8s2.7-0.2,3.9-0.8
	c1.2-0.5,2.2-1.2,3.1-2.1c0.9-0.9,1.5-1.9,2-3.1C161,56.3,161.3,55,161.3,53.7z M157.8,53.7c0,0.9-0.2,1.8-0.5,2.6
	c-0.3,0.8-0.7,1.5-1.3,2.1s-1.2,1-2,1.4c-0.8,0.3-1.6,0.6-2.6,0.6c-1,0-1.8-0.2-2.6-0.6c-0.8-0.3-1.4-0.8-2-1.4s-1-1.3-1.3-2.2
	c-0.3-0.8-0.5-1.7-0.5-2.6s0.2-1.8,0.5-2.6c0.3-0.8,0.7-1.5,1.3-2.1c0.6-0.6,1.2-1,2-1.4c0.8-0.3,1.6-0.6,2.6-0.6
	c1,0,1.8,0.2,2.6,0.6c0.8,0.4,1.4,0.8,2,1.4c0.6,0.6,1,1.3,1.3,2.2C157.7,52,157.8,52.8,157.8,53.7"/>
<path id="path32" class="st5" d="M182.8,53.4c0-1.4-0.2-2.6-0.7-3.7s-1.1-2.2-2-3c-0.9-0.8-1.9-1.5-3.1-2c-1.2-0.5-2.6-0.7-4-0.7
	H166v18.8h6.9c1.4,0,2.8-0.2,4-0.7c1.2-0.5,2.2-1.1,3.1-2c0.9-0.8,1.5-1.8,2-3C182.5,56,182.8,54.7,182.8,53.4L182.8,53.4z
	 M179.3,53.4c0,1-0.2,1.8-0.5,2.6c-0.3,0.8-0.7,1.4-1.3,2c-0.6,0.6-1.2,1-2,1.3s-1.7,0.5-2.6,0.5H169V47h3.9c1,0,1.8,0.2,2.6,0.5
	c0.8,0.3,1.4,0.8,2,1.4c0.6,0.6,1,1.3,1.3,2C179.2,51.6,179.3,52.5,179.3,53.4"/>
<path id="path34" class="st6" d="M187.1,52.1L187,63h14v-3h-11v-5h10v-3L187.1,52.1"/>
<path id="path36" class="st7" d="M200.8,44H187v3h13.8V44"/>
<path id="path38" class="st5" d="M221.6,62.8l-5-7.1c0.6-0.2,1.3-0.4,1.8-0.8c0.6-0.3,1-0.7,1.4-1.2c0.4-0.5,0.7-1,0.9-1.6
	c0.2-0.6,0.3-1.3,0.3-2.1c0-0.9-0.2-1.8-0.5-2.5c-0.3-0.7-0.8-1.4-1.4-1.8c-0.6-0.5-1.4-0.9-2.2-1.2c-0.9-0.2-1.8-0.4-2.9-0.4h-8.3
	v18.8h3.3v-6.6h4.1l4.5,6.6H221.6z M217.7,50.2c0,1-0.3,1.8-1,2.3c-0.7,0.6-1.6,0.9-2.8,0.9h-4.8V47h4.8c1.2,0,2.2,0.2,2.9,0.8
	C217.4,48.3,217.7,49.1,217.7,50.2"/>
<path id="path40" class="st5" d="M228.5,49.2c0-0.6,0.2-1.1,0.8-1.6c0.6-0.4,1.3-0.6,2.2-0.6c0.9,0,1.7,0.2,2.6,0.5
	c0.8,0.3,1.7,0.8,2.6,1.4l1.8-2.5c-1-0.8-2-1.4-3-1.8c-1.1-0.4-2.3-0.6-3.7-0.6c-1,0-1.8,0.2-2.6,0.4s-1.4,0.6-2,1.1
	c-0.6,0.5-1,1-1.3,1.8c-0.3,0.6-0.5,1.4-0.5,2.2c0,0.9,0.2,1.6,0.4,2.2s0.6,1.1,1.2,1.5c0.6,0.4,1.2,0.8,1.9,1
	c0.8,0.3,1.7,0.6,2.6,0.8c0.9,0.2,1.6,0.4,2.1,0.6c0.6,0.2,1,0.4,1.3,0.6c0.3,0.2,0.6,0.5,0.6,0.7c0.1,0.2,0.2,0.6,0.2,0.9
	c0,0.7-0.3,1.3-0.9,1.8c-0.6,0.4-1.4,0.6-2.4,0.6c-1.2,0-2.2-0.2-3.1-0.6c-1-0.4-1.8-1-2.7-1.8l-2,2.3c1.1,1,2.3,1.8,3.7,2.2
	c1.3,0.5,2.7,0.7,4.2,0.7c1,0,1.8-0.2,2.7-0.4c0.8-0.2,1.5-0.6,2.1-1.1c0.6-0.5,1-1,1.4-1.8c0.3-0.7,0.5-1.5,0.5-2.4
	c0-0.8-0.2-1.4-0.4-2.1c-0.2-0.6-0.6-1.1-1.1-1.5c-0.5-0.4-1.1-0.8-1.8-1.1c-0.7-0.3-1.6-0.6-2.6-0.8c-0.9-0.2-1.6-0.4-2.2-0.6
	c-0.6-0.2-1-0.4-1.4-0.6c-0.3-0.2-0.6-0.5-0.6-0.7C228.5,49.9,228.5,49.6,228.5,49.2"/>
<path id="path42_1_" class="st7" d="M104,4v38h3V1H1v106h106V66h-3v38H4V4H104z"/>
<path id="path44" class="st8" d="M115.6,71.7l-0.7-0.7c-0.2,0.2-0.4,0.3-0.6,0.5c-0.2,0.1-0.5,0.2-0.7,0.2s-0.4-0.1-0.6-0.2
	c-0.2-0.1-0.3-0.2-0.5-0.3c-0.2-0.2-0.2-0.3-0.3-0.5c-0.1-0.2-0.1-0.4-0.1-0.6c0-0.2,0-0.4,0.1-0.6c0.1-0.2,0.2-0.4,0.3-0.5
	c0.2-0.2,0.3-0.2,0.5-0.3c0.2-0.1,0.4-0.2,0.6-0.2c0.3,0,0.6,0.1,0.7,0.2c0.2,0.1,0.4,0.2,0.6,0.5l0.7-0.8c-0.2-0.2-0.5-0.5-0.8-0.6
	c-0.3-0.2-0.7-0.2-1.2-0.2c-0.4,0-0.7,0.1-1,0.2c-0.3,0.2-0.6,0.3-0.8,0.6c-0.2,0.2-0.4,0.6-0.6,0.9s-0.2,0.6-0.2,1
	c0,0.4,0.1,0.7,0.2,1c0.2,0.3,0.3,0.6,0.6,0.8c0.2,0.2,0.5,0.4,0.8,0.6c0.3,0.2,0.6,0.2,1,0.2c0.5,0,0.9-0.1,1.2-0.2
	C115.1,72.1,115.4,72,115.6,71.7L115.6,71.7z M117.8,70.5c0-0.3,0.1-0.6,0.2-0.9c0.1-0.2,0.2-0.5,0.3-0.6c0.2-0.2,0.3-0.3,0.6-0.4
	c0.2-0.1,0.5-0.2,0.7-0.2h0.1v-1.2c-0.5,0-0.8,0.1-1.1,0.3s-0.5,0.6-0.6,1v-1.1h-1.1v5.1h1.1L117.8,70.5L117.8,70.5z M121.3,70.4
	h3.7c0-0.1,0-0.1,0-0.2c0-0.1,0-0.1,0-0.2c0-0.4-0.1-0.7-0.2-1c-0.1-0.3-0.2-0.6-0.5-0.9c-0.2-0.2-0.5-0.5-0.7-0.6
	c-0.3-0.2-0.6-0.2-1-0.2c-0.4,0-0.7,0.1-1,0.2c-0.3,0.2-0.6,0.3-0.8,0.6c-0.2,0.2-0.4,0.5-0.5,0.8c-0.2,0.3-0.2,0.6-0.2,1
	c0,0.4,0.1,0.7,0.2,1s0.3,0.6,0.6,0.8c0.2,0.2,0.5,0.4,0.8,0.6c0.3,0.2,0.6,0.2,1,0.2c0.5,0,0.9-0.1,1.2-0.2
	c0.3-0.2,0.6-0.4,0.9-0.7l-0.6-0.6c-0.2,0.2-0.4,0.3-0.6,0.5c-0.2,0.1-0.5,0.2-0.7,0.2c-0.4,0-0.7-0.1-1-0.3
	C121.5,71.1,121.4,70.8,121.3,70.4L121.3,70.4z M121.3,69.6c0.1-0.4,0.2-0.7,0.4-1c0.2-0.2,0.6-0.4,0.9-0.4c0.2,0,0.4,0,0.5,0.1
	c0.2,0.1,0.2,0.2,0.4,0.3c0.1,0.1,0.2,0.2,0.2,0.4c0.1,0.2,0.1,0.3,0.2,0.6H121.3z M130.4,72.5v-3.1c0-0.6-0.2-1.2-0.6-1.6
	c-0.4-0.4-1-0.6-1.7-0.6c-0.4,0-0.8,0-1,0.1c-0.3,0.1-0.6,0.2-0.9,0.3l0.3,1c0.2-0.1,0.5-0.2,0.6-0.2c0.2-0.1,0.5-0.1,0.8-0.1
	c0.4,0,0.7,0.1,1,0.2c0.2,0.2,0.3,0.5,0.3,0.8v0.2c-0.2-0.1-0.4-0.1-0.6-0.2c-0.2,0-0.5-0.1-0.8-0.1s-0.6,0-0.8,0.1
	c-0.2,0.1-0.5,0.2-0.6,0.3c-0.2,0.2-0.3,0.3-0.4,0.5c-0.1,0.2-0.2,0.5-0.2,0.7l0,0c0,0.2,0.1,0.5,0.2,0.6c0.1,0.2,0.2,0.3,0.4,0.5
	c0.2,0.2,0.3,0.2,0.6,0.3c0.2,0.1,0.5,0.1,0.7,0.1c0.4,0,0.7-0.1,1-0.2c0.2-0.2,0.5-0.3,0.6-0.5v0.6L130.4,72.5z M129.3,70.7
	c0,0.2,0,0.3-0.1,0.4c-0.1,0.2-0.2,0.2-0.3,0.3c-0.2,0.1-0.2,0.2-0.4,0.2c-0.2,0.1-0.3,0.1-0.6,0.1c-0.2,0-0.5-0.1-0.7-0.2
	c-0.2-0.2-0.3-0.3-0.3-0.6l0,0c0-0.2,0.1-0.5,0.3-0.6c0.2-0.2,0.5-0.2,0.9-0.2c0.2,0,0.4,0,0.6,0.1c0.2,0,0.4,0.1,0.6,0.2
	L129.3,70.7z M133.1,68.5h1.4v-1h-1.4V66H132v1.4h-0.6v1h0.6v2.7c0,0.3,0,0.5,0.1,0.7c0.1,0.2,0.2,0.3,0.3,0.5
	c0.2,0.1,0.3,0.2,0.5,0.2c0.2,0.1,0.4,0.1,0.6,0.1c0.2,0,0.4,0,0.6-0.1c0.2-0.1,0.3-0.1,0.5-0.2v-1c-0.2,0.1-0.5,0.2-0.7,0.2
	c-0.2,0-0.3-0.1-0.5-0.2c-0.1-0.1-0.2-0.2-0.2-0.5V68.5L133.1,68.5z M136.4,70.4h3.7c0-0.1,0-0.1,0-0.2c0-0.1,0-0.1,0-0.2
	c0-0.4-0.1-0.7-0.2-1c-0.1-0.3-0.2-0.6-0.5-0.9c-0.2-0.2-0.5-0.5-0.7-0.6c-0.3-0.2-0.6-0.2-1-0.2s-0.7,0.1-1,0.2
	c-0.3,0.2-0.6,0.3-0.8,0.6c-0.2,0.2-0.4,0.5-0.5,0.8c-0.2,0.3-0.2,0.6-0.2,1c0,0.4,0.1,0.7,0.2,1s0.3,0.6,0.6,0.8
	c0.2,0.2,0.5,0.4,0.8,0.6c0.3,0.2,0.6,0.2,1,0.2c0.5,0,0.9-0.1,1.2-0.2c0.3-0.2,0.6-0.4,0.9-0.7l-0.6-0.6c-0.2,0.2-0.4,0.3-0.6,0.5
	c-0.2,0.1-0.5,0.2-0.7,0.2c-0.4,0-0.7-0.1-1-0.3C136.6,71.1,136.4,70.8,136.4,70.4L136.4,70.4z M136.4,69.6c0.1-0.4,0.2-0.7,0.4-1
	c0.2-0.2,0.6-0.4,0.9-0.4c0.2,0,0.4,0,0.5,0.1c0.2,0.1,0.2,0.2,0.4,0.3c0.1,0.1,0.2,0.2,0.2,0.4c0.1,0.2,0.1,0.3,0.2,0.6H136.4z
	 M146.2,71.2l-1.4-3.8h-1.3l2.1,5.1h1l2.1-5.1h-1.2L146.2,71.2z M153.8,72.5v-3.1c0-0.6-0.2-1.2-0.6-1.6c-0.4-0.4-1-0.6-1.7-0.6
	c-0.4,0-0.8,0-1,0.1c-0.3,0.1-0.6,0.2-0.9,0.3l0.3,1c0.2-0.1,0.5-0.2,0.6-0.2c0.2-0.1,0.5-0.1,0.8-0.1c0.4,0,0.7,0.1,1,0.2
	c0.2,0.2,0.3,0.5,0.3,0.8v0.2c-0.2-0.1-0.4-0.1-0.6-0.2c-0.2-0.1-0.5-0.1-0.8-0.1s-0.6,0-0.8,0.1c-0.2,0.1-0.5,0.2-0.6,0.3
	c-0.2,0.2-0.3,0.3-0.4,0.5c-0.1,0.2-0.2,0.5-0.2,0.7l0,0c0,0.2,0.1,0.5,0.2,0.6c0.1,0.2,0.2,0.3,0.4,0.5c0.2,0.2,0.3,0.2,0.6,0.3
	c0.2,0.1,0.5,0.1,0.7,0.1c0.4,0,0.7-0.1,1-0.2c0.2-0.2,0.5-0.3,0.6-0.5v0.6L153.8,72.5z M152.6,70.7c0,0.2,0,0.3-0.1,0.4
	c-0.1,0.2-0.2,0.2-0.3,0.3c-0.2,0.1-0.2,0.2-0.4,0.2c-0.2,0.1-0.3,0.1-0.6,0.1s-0.5-0.1-0.7-0.2c-0.2-0.2-0.3-0.3-0.3-0.6l0,0
	c0-0.2,0.1-0.5,0.3-0.6c0.2-0.2,0.5-0.2,0.9-0.2c0.2,0,0.4,0,0.6,0.1c0.2,0,0.4,0.1,0.6,0.2L152.6,70.7z M156.3,72.5v-7.1h-1.1v7.1
	H156.3z M161.2,70.3c0,0.4-0.1,0.7-0.3,1c-0.2,0.2-0.5,0.3-0.8,0.3s-0.6-0.1-0.8-0.3s-0.3-0.5-0.3-0.9v-2.9h-1.1v3.2
	c0,0.6,0.2,1,0.5,1.4c0.3,0.3,0.7,0.6,1.4,0.6c0.4,0,0.7-0.1,1-0.2c0.2-0.2,0.5-0.4,0.6-0.6v0.8h1.1v-5.1h-1.1L161.2,70.3z
	 M164.6,70.4h3.7c0-0.1,0-0.1,0-0.2c0-0.1,0-0.1,0-0.2c0-0.4-0.1-0.7-0.2-1c-0.1-0.3-0.2-0.6-0.5-0.9c-0.2-0.2-0.5-0.5-0.7-0.6
	c-0.3-0.2-0.6-0.2-1-0.2s-0.7,0.1-1,0.2c-0.3,0.2-0.6,0.3-0.8,0.6c-0.2,0.2-0.4,0.5-0.5,0.8c-0.2,0.3-0.2,0.6-0.2,1
	c0,0.4,0.1,0.7,0.2,1s0.3,0.6,0.6,0.8c0.2,0.2,0.5,0.4,0.8,0.6c0.3,0.2,0.6,0.2,1,0.2c0.5,0,0.9-0.1,1.2-0.2
	c0.3-0.2,0.6-0.4,0.9-0.7l-0.6-0.6c-0.2,0.2-0.4,0.3-0.6,0.5c-0.2,0.1-0.5,0.2-0.7,0.2c-0.4,0-0.7-0.1-1-0.3
	C164.9,71.1,164.7,70.8,164.6,70.4L164.6,70.4z M164.6,69.6c0.1-0.4,0.2-0.7,0.4-1c0.2-0.2,0.6-0.4,0.9-0.4c0.2,0,0.4,0,0.5,0.1
	c0.2,0.1,0.2,0.2,0.4,0.3c0.1,0.1,0.2,0.2,0.2,0.4c0.1,0.2,0.1,0.3,0.2,0.6H164.6z M176.3,67.4h-1l-1.1,3.5l-1-3.5H172l1.6,5.1h1
	l1.1-3.5l1.1,3.5h1l1.7-5.1h-1.1l-1,3.5L176.3,67.4z M181.9,66.6v-1.1h-1.3v1.1H181.9z M181.8,72.5v-5.1h-1.1v5.1H181.8z
	 M184.7,68.5h1.4v-1h-1.4V66h-1.1v1.4H183v1h0.6v2.7c0,0.3,0,0.5,0.1,0.7c0.1,0.2,0.2,0.3,0.3,0.5c0.2,0.1,0.3,0.2,0.5,0.2
	c0.2,0.1,0.4,0.1,0.6,0.1c0.2,0,0.4,0,0.6-0.1c0.2-0.1,0.3-0.1,0.5-0.2v-1c-0.2,0.1-0.5,0.2-0.7,0.2c-0.2,0-0.3-0.1-0.5-0.2
	c-0.1-0.1-0.2-0.2-0.2-0.5V68.5L184.7,68.5z M188.4,69.7c0-0.4,0.1-0.7,0.3-1c0.2-0.2,0.5-0.3,0.8-0.3s0.6,0.1,0.8,0.3
	s0.3,0.5,0.3,0.9v2.9h1.1v-3.2c0-0.6-0.2-1-0.5-1.4c-0.3-0.3-0.7-0.6-1.4-0.6c-0.2,0-0.4,0-0.6,0.1c-0.2,0.1-0.3,0.1-0.4,0.2
	c-0.2,0.1-0.2,0.2-0.3,0.3c-0.1,0.1-0.2,0.2-0.2,0.3v-2.7h-1.1v7.1h1.1L188.4,69.7L188.4,69.7z M198.2,70c0-0.4-0.1-0.7-0.2-1
	s-0.3-0.6-0.6-0.8s-0.6-0.4-0.9-0.6c-0.3-0.2-0.7-0.2-1-0.2c-0.4,0-0.7,0.1-1,0.2c-0.3,0.2-0.6,0.3-0.9,0.6
	c-0.2,0.2-0.4,0.6-0.6,0.9s-0.2,0.6-0.2,1c0,0.4,0.1,0.7,0.2,1s0.3,0.6,0.6,0.8s0.6,0.4,0.9,0.6c0.3,0.2,0.7,0.2,1,0.2
	c0.4,0,0.7-0.1,1-0.2c0.3-0.2,0.6-0.3,0.9-0.6c0.2-0.2,0.4-0.5,0.6-0.8C198.1,70.7,198.2,70.3,198.2,70L198.2,70z M197.1,70
	c0,0.2,0,0.4-0.1,0.6c-0.1,0.2-0.2,0.4-0.3,0.5c-0.2,0.2-0.3,0.2-0.5,0.3c-0.2,0.1-0.4,0.2-0.6,0.2s-0.4-0.1-0.6-0.2
	c-0.2-0.1-0.3-0.2-0.5-0.3c-0.2-0.2-0.2-0.3-0.3-0.6c-0.1-0.2-0.1-0.4-0.1-0.6s0-0.4,0.1-0.6c0.1-0.2,0.2-0.4,0.3-0.5
	c0.2-0.1,0.3-0.2,0.5-0.3c0.2-0.1,0.4-0.2,0.6-0.2s0.4,0.1,0.6,0.2c0.2,0.1,0.3,0.2,0.5,0.3c0.2,0.1,0.2,0.3,0.3,0.6
	C197,69.6,197.1,69.7,197.1,70L197.1,70z M202.7,70.3c0,0.4-0.1,0.7-0.3,1c-0.2,0.2-0.5,0.3-0.8,0.3s-0.6-0.1-0.8-0.3
	s-0.3-0.5-0.3-0.9v-2.9h-1.1v3.2c0,0.6,0.2,1,0.5,1.4c0.3,0.3,0.7,0.6,1.4,0.6c0.4,0,0.7-0.1,1-0.2c0.2-0.2,0.5-0.4,0.6-0.6v0.8h1.1
	v-5.1h-1.1L202.7,70.3z M206.7,68.5h1.4v-1h-1.4V66h-1.1v1.4h-0.6v1h0.6v2.7c0,0.3,0,0.5,0.1,0.7c0.1,0.2,0.2,0.3,0.3,0.5
	c0.2,0.1,0.3,0.2,0.5,0.2c0.2,0.1,0.4,0.1,0.6,0.1c0.2,0,0.4,0,0.6-0.1c0.2-0.1,0.3-0.1,0.5-0.2v-1c-0.2,0.1-0.5,0.2-0.7,0.2
	c-0.2,0-0.3-0.1-0.5-0.2c-0.1-0.1-0.2-0.2-0.2-0.5L206.7,68.5L206.7,68.5z M215.9,67.4h-1l-1.1,3.5l-1-3.5h-1.2l1.6,5.1h1l1.1-3.5
	l1.1,3.5h1l1.7-5.1h-1.1l-1,3.5L215.9,67.4z M224.3,72.5v-3.1c0-0.6-0.2-1.2-0.6-1.6c-0.4-0.4-1-0.6-1.7-0.6c-0.4,0-0.8,0-1,0.1
	c-0.3,0.1-0.6,0.2-0.9,0.3l0.3,1c0.2-0.1,0.5-0.2,0.6-0.2c0.2-0.1,0.5-0.1,0.8-0.1c0.4,0,0.7,0.1,1,0.2c0.2,0.2,0.3,0.5,0.3,0.8v0.2
	c-0.2-0.1-0.4-0.1-0.6-0.2c-0.2,0-0.5-0.1-0.8-0.1s-0.6,0-0.8,0.1c-0.2,0.1-0.5,0.2-0.6,0.3c-0.2,0.2-0.3,0.3-0.4,0.5
	c-0.1,0.2-0.2,0.5-0.2,0.7l0,0c0,0.2,0.1,0.5,0.2,0.6c0.1,0.2,0.2,0.3,0.4,0.5c0.2,0.2,0.3,0.2,0.6,0.3c0.2,0.1,0.5,0.1,0.7,0.1
	c0.4,0,0.7-0.1,1-0.2c0.2-0.2,0.5-0.3,0.6-0.5v0.6L224.3,72.5z M223.2,70.7c0,0.2,0,0.3-0.1,0.4c-0.1,0.2-0.2,0.2-0.3,0.3
	c-0.2,0.1-0.2,0.2-0.4,0.2c-0.2,0.1-0.3,0.1-0.6,0.1c-0.2,0-0.5-0.1-0.7-0.2c-0.2-0.2-0.3-0.3-0.3-0.6l0,0c0-0.2,0.1-0.5,0.3-0.6
	s0.5-0.2,0.9-0.2c0.2,0,0.4,0,0.6,0.1c0.2,0,0.4,0.1,0.6,0.2V70.7z M229.3,71L229.3,71c0-0.2-0.1-0.5-0.2-0.6s-0.2-0.3-0.4-0.4
	c-0.2-0.1-0.3-0.2-0.5-0.3c-0.2-0.1-0.4-0.2-0.6-0.2s-0.3-0.1-0.4-0.2c-0.2-0.1-0.2-0.1-0.4-0.2c-0.1-0.1-0.2-0.1-0.2-0.2
	c-0.1-0.1-0.1-0.2-0.1-0.2l0,0c0-0.2,0.1-0.2,0.2-0.4c0.2-0.1,0.3-0.2,0.6-0.2c0.2,0,0.4,0.1,0.7,0.2c0.2,0.1,0.5,0.2,0.7,0.3
	l0.5-0.8c-0.2-0.2-0.6-0.3-0.9-0.4c-0.3-0.1-0.6-0.2-1-0.2c-0.2,0-0.5,0-0.7,0.1c-0.2,0.1-0.4,0.2-0.6,0.3c-0.2,0.2-0.3,0.3-0.4,0.5
	s-0.2,0.4-0.2,0.6l0,0c0,0.2,0.1,0.5,0.2,0.6s0.2,0.3,0.4,0.4c0.2,0.1,0.3,0.2,0.5,0.2c0.2,0.1,0.4,0.2,0.6,0.2
	c0.2,0.1,0.3,0.1,0.4,0.2c0.2,0.1,0.2,0.1,0.4,0.2c0.1,0.1,0.2,0.1,0.2,0.2c0.1,0.1,0.1,0.2,0.1,0.2l0,0c0,0.2-0.1,0.3-0.2,0.4
	c-0.2,0.1-0.3,0.2-0.6,0.2c-0.2,0-0.6-0.1-0.8-0.2c-0.3-0.1-0.6-0.2-0.8-0.5l-0.5,0.8c0.3,0.2,0.6,0.4,1,0.6
	c0.4,0.2,0.7,0.2,1.1,0.2c0.2,0,0.5,0,0.7-0.1c0.2-0.1,0.4-0.2,0.6-0.3c0.2-0.2,0.3-0.3,0.4-0.5C229.3,71.5,229.3,71.3,229.3,71z
	 M231.7,68.5h1.4v-1h-1.4V66h-1.1v1.4H230v1h0.6v2.7c0,0.3,0,0.5,0.1,0.7c0.1,0.2,0.2,0.3,0.3,0.5c0.2,0.1,0.3,0.2,0.5,0.2
	s0.4,0.1,0.6,0.1c0.2,0,0.4,0,0.6-0.1c0.2-0.1,0.3-0.1,0.5-0.2v-1c-0.2,0.1-0.5,0.2-0.7,0.2c-0.2,0-0.3-0.1-0.5-0.2
	c-0.1-0.1-0.2-0.2-0.2-0.5L231.7,68.5L231.7,68.5z M235,70.4h3.7c0-0.1,0-0.1,0-0.2c0-0.1,0-0.1,0-0.2c0-0.4-0.1-0.7-0.2-1
	s-0.2-0.6-0.5-0.9c-0.2-0.2-0.5-0.5-0.7-0.6c-0.3-0.2-0.6-0.2-1-0.2s-0.7,0.1-1,0.2c-0.3,0.2-0.6,0.3-0.8,0.6
	c-0.2,0.2-0.4,0.5-0.5,0.8c-0.2,0.3-0.2,0.6-0.2,1c0,0.4,0.1,0.7,0.2,1s0.3,0.6,0.6,0.8c0.2,0.2,0.5,0.4,0.8,0.6
	c0.3,0.2,0.6,0.2,1,0.2c0.5,0,0.9-0.1,1.2-0.2c0.3-0.2,0.6-0.4,0.9-0.7l-0.6-0.6c-0.2,0.2-0.4,0.3-0.6,0.5c-0.2,0.1-0.5,0.2-0.7,0.2
	c-0.4,0-0.7-0.1-1-0.3C235.2,71.1,235.1,70.8,235,70.4L235,70.4z M235,69.6c0.1-0.4,0.2-0.7,0.4-1c0.2-0.2,0.6-0.4,0.9-0.4
	c0.2,0,0.4,0,0.5,0.1c0.2,0.1,0.2,0.2,0.4,0.3c0.1,0.1,0.2,0.2,0.2,0.4c0.1,0.2,0.1,0.3,0.2,0.6H235"/>
</svg>
