<?xml version="1.0" encoding="utf-8"?>
<!-- Generator: Adobe Illustrator 24.2.3, SVG Export Plug-In . SVG Version: 6.00 Build 0)  -->
<svg version="1.1" id="Layer_1" xmlns="http://www.w3.org/2000/svg" xmlns:xlink="http://www.w3.org/1999/xlink" x="0px" y="0px"
	 width="278px" height="278px" viewBox="0 0 278 278" style="enable-background:new 0 0 278 278;" xml:space="preserve">
<style type="text/css">
	.st0{fill:#C2C4CA;enable-background:new    ;}
	.st1{fill:#A50D73;}
	.st2{fill:#342E36;}
</style>
<polygon id="polygon7" class="st0" points="252,223 252,252 18,252 18,18 252,18 252,47 270,47 270,0 0,0 0,270 270,270 270,223 "/>
<polygon id="polygon9" class="st1" points="100,187 173,187 173,170 118,170 118,83 100,83 "/>
<path id="path11" class="st2" d="M277.3,170.3l-11.8-11.9c-4.1,3.9-8.6,7.2-13.6,9.9c-5.1,2.5-10.7,3.8-16.4,3.6
	c-4.8,0-9.5-0.9-13.8-2.9c-4.2-1.9-7.9-4.6-11-8c-3.1-3.5-5.6-7.5-7.1-11.9c-1.7-4.7-2.6-9.6-2.5-14.5c0-4.9,0.8-9.8,2.5-14.4
	c1.6-4.3,4-8.3,7.1-11.7c3.1-3.3,6.8-6,11-7.9c4.3-2,9-3,13.8-2.9c5.5-0.1,11,1.1,16,3.6c4.8,2.5,9.3,5.7,13.3,9.4l11.8-13.6
	c-2.5-2.4-5.1-4.6-7.9-6.6c-2.8-2-5.9-3.7-9.1-5.1c-3.5-1.5-7.1-2.6-10.8-3.4c-4.3-0.8-8.6-1.2-13-1.2c-7.5-0.1-14.9,1.4-21.8,4.2
	c-12.9,5.4-23,15.8-28.1,28.8c-5.3,13.6-5.3,28.6,0.1,42.2c2.5,6.4,6.3,12.2,11,17.1c4.8,4.9,10.5,8.7,16.8,11.4
	c6.7,2.8,13.9,4.2,21.2,4.2c4.5,0,8.9-0.4,13.3-1.3c3.8-0.8,7.6-2,11.1-3.7c3.3-1.6,6.5-3.6,9.5-5.8
	C271.9,175.6,274.7,173.1,277.3,170.3L277.3,170.3z"/>
</svg>
